<svg fill="none" height="28" viewBox="0 0 28 28" width="28" xmlns="http://www.w3.org/2000/svg"><path d="m17.4928 14 9.7764-9.77642c.464-.46317.725-1.09168.7255-1.74728.0006-.6556-.2593-1.28457-.7224-1.748561-.4632-.463986-1.0917-.72497655-1.7473-.72555553s-1.2846.25930053-1.7486.72246853l-9.7764 9.776448-9.77642-9.776448c-.46399-.463987-1.09329-.724652-1.74946-.724652-.65618 0-1.28548.260665-1.749468.724652-.463987.463988-.724652 1.093288-.724652 1.749468 0 .65617.260665 1.28547.724652 1.74946l9.776448 9.77642-9.776448 9.7764c-.463987.464-.724652 1.0933-.724652 1.7495s.260665 1.2855.724652 1.7494c.463988.464 1.093288.7247 1.749468.7247.65617 0 1.28547-.2607 1.74946-.7247l9.77642-9.7764 9.7764 9.7764c.464.464 1.0933.7247 1.7495.7247s1.2855-.2607 1.7494-.7247c.464-.4639.7247-1.0932.7247-1.7494s-.2607-1.2855-.7247-1.7495z" fill="#5d5c52"/></svg>