<svg fill="none" height="64" viewBox="0 0 64 64" width="64" xmlns="http://www.w3.org/2000/svg"><path d="m32 64c6.329 0 12.5159-1.8768 17.7782-5.393 5.2624-3.5162 9.3639-8.5139 11.7859-14.3611 2.422-5.8473 3.0558-12.2814 1.821-18.4888-1.2347-6.2074-4.2824-11.9092-8.7577-16.38452-4.4753-4.47528-10.1771-7.52298-16.3845-8.75771-6.2074-1.234727-12.6415-.6010209-18.4888 1.82098-5.8472 2.42201-10.84492 6.52353-14.36113 11.78595-3.5162 5.2623-5.39296731 11.4492-5.39296758 17.7782h7.16729758c0-4.9114 1.45641-9.7126 4.1851-13.7963 2.7286-4.0837 6.607-7.2666 11.1445-9.14613 4.5376-1.87953 9.5306-2.3713 14.3477-1.41312 4.8171.95817 9.2419 3.32325 12.7148 6.79615s5.838 7.8977 6.7962 12.7148c.9581 4.8171.4664 9.8101-1.4132 14.3477-1.8795 4.5375-5.0624 8.4159-9.1461 11.1445-4.0837 2.7287-8.8849 4.1851-13.7963 4.1851z" fill="#6e6a51"/></svg>