<svg width="24" height="24" viewBox="0 0 24 24" fill="none" xmlns="http://www.w3.org/2000/svg">
<path d="M12 24C14.3734 24 16.6935 23.2962 18.6668 21.9776C20.6402 20.6591 22.1783 18.7849 23.0866 16.5922C23.9948 14.3995 24.2324 11.9867 23.7694 9.65892C23.3064 7.33114 22.1635 5.19295 20.4853 3.51472C18.8071 1.83649 16.6689 0.693599 14.3411 0.230576C12.0133 -0.232447 9.60051 0.0051934 7.4078 0.913445C5.21509 1.8217 3.34094 3.35977 2.02236 5.33316C0.703787 7.30655 -4.20793e-07 9.62662 -5.24537e-07 12L2.68774 12C2.68773 10.1582 3.23389 8.35778 4.25714 6.82638C5.28038 5.29499 6.73476 4.10141 8.43635 3.39659C10.1379 2.69177 12.0103 2.50735 13.8167 2.86667C15.6231 3.22598 17.2824 4.11289 18.5848 5.41523C19.8871 6.71758 20.774 8.37687 21.1333 10.1833C21.4926 11.9897 21.3082 13.8621 20.6034 15.5637C19.8986 17.2652 18.705 18.7196 17.1736 19.7429C15.6422 20.7661 13.8418 21.3123 12 21.3123L12 24Z" fill="black"/>
</svg>
