<svg fill="none" height="17" viewBox="0 0 16 17" width="16" xmlns="http://www.w3.org/2000/svg"><path d="m10.3334 8.67162v-2.77679l-1.6484-.7496c-1.8275 2.15347-2.51063 7.76277-6.935 7.76277-.46413 0-.909248.1826-1.237437.5076-.328189.3251-.512563.7659-.512563 1.2256 0 .4596.184374.9005.512563 1.2255s.773307.5076 1.237437.5076c6.645 0 11.5828-3.8027 13.0994-6.50989l-1.1578-1.19279zm4.0966-3.97299c1.005-1.85202.4819-3.35091-.0981-4.0776-.0222-.027177-.0498-.049414-.0812-.06525-.0315-.015836-.0659-.024914-.1011-.026639-.0352-.001724-.0704.003944-.1032.016634-.0329.012689-.0626.032112-.0873.056994l-.7157.711841c-.041.04134-.0663.09557-.0714.15335-.005.05779.0104.11552.0436.16326.2144.32064.5328 1.08633-.0437 2.23827-.5634-.24389-1.1715-.36991-1.7863-.37016-.875 0-1.68748.26431-2.3856.69915l2.3334 1.06126v2.42149h2.7841l1.7087 1.76041c.1019-.39058.1738-.79323.1738-1.21662.0006-.66366-.1387-1.32012-.4091-1.92737-.2703-.60724-.6657-1.15187-1.1609-1.59902z" fill="#6e6a51"/></svg>